<svg id="visual" viewBox="0 0 900 600" width="900" height="600" xmlns="http://www.w3.org/2000/svg" xmlns:xlink="http://www.w3.org/1999/xlink" version="1.1"><rect x="0" y="0" width="900" height="600" fill="#001220"></rect><defs><linearGradient id="grad1_0" x1="33.3%" y1="0%" x2="100%" y2="100%"><stop offset="20%" stop-color="#001220" stop-opacity="1"></stop><stop offset="80%" stop-color="#001220" stop-opacity="1"></stop></linearGradient></defs><defs><linearGradient id="grad2_0" x1="0%" y1="0%" x2="66.7%" y2="100%"><stop offset="20%" stop-color="#001220" stop-opacity="1"></stop><stop offset="80%" stop-color="#001220" stop-opacity="1"></stop></linearGradient></defs><g transform="translate(900, 0)"><path d="M0 351.5C-47.4 339.7 -94.9 327.8 -124 299.3C-153.1 270.9 -163.9 226 -199.4 199.4C-235 172.8 -295.3 164.7 -324.8 134.5C-354.3 104.4 -352.9 52.2 -351.5 0L0 0Z" fill="#6600FF"></path></g><g transform="translate(0, 600)"><path d="M0 -351.5C45.4 -336.2 90.8 -320.8 122.1 -294.7C153.3 -268.6 170.4 -231.9 206.5 -206.5C242.5 -181.1 297.5 -167 324.8 -134.5C352.1 -102 351.8 -51 351.5 0L0 0Z" fill="#6600FF"></path></g></svg>